<svg width="20" height="20" viewBox="0 0 20 20" fill="none" xmlns="http://www.w3.org/2000/svg">
<g clip-path="url(#clip0_17_553)">
<path d="M18.3333 4.58331H7.5C6.58333 4.58331 5.83333 5.33331 5.83333 6.24998V13.75C5.83333 14.192 6.00893 14.6159 6.32149 14.9285C6.63405 15.2411 7.05797 15.4166 7.5 15.4166H18.3333C19.2583 15.4166 20 14.675 20 13.75V6.24998C20 5.80795 19.8244 5.38403 19.5118 5.07147C19.1993 4.75891 18.7754 4.58331 18.3333 4.58331ZM18.3333 7.64165L12.9167 10.4166L7.5 7.64165V6.24998L12.9167 9.00831L18.3333 6.24998V7.64165ZM4.16667 13.75C4.16667 13.8916 4.19167 14.025 4.20833 14.1666H0.833333C0.373333 14.1666 0 13.7916 0 13.3333C0 12.875 0.373333 12.5 0.833333 12.5H4.16667V13.75ZM2.5 5.83331H4.20833C4.19167 5.97498 4.16667 6.10831 4.16667 6.24998V7.49998H2.5C2.04167 7.49998 1.66667 7.12498 1.66667 6.66665C1.66667 6.20831 2.04167 5.83331 2.5 5.83331ZM0.833333 9.99998C0.833333 9.54165 1.20833 9.16665 1.66667 9.16665H4.16667V10.8333H1.66667C1.20833 10.8333 0.833333 10.4583 0.833333 9.99998Z" fill="#F2F2F2"/>
</g>
<defs>
<clipPath id="clip0_17_553">
<rect width="20" height="20" fill="white"/>
</clipPath>
</defs>
</svg>
