<svg width="120" height="62" viewBox="0 0 120 62" fill="none" xmlns="http://www.w3.org/2000/svg">
<path d="M37.7143 14.6979V25.5683L33.6762 28.2667C28.9524 31.4245 26.9905 32.5345 26.1714 32.5345C25.2762 32.5345 23.2571 31.8646 22.2857 31.2331C17.2762 27.9988 16.6286 21.2048 20.9333 17.1667C22.4571 15.7314 24.8762 14.7362 26.819 14.7362C28.1714 14.7362 30.1905 15.2912 31.3333 15.9993C31.9428 16.3629 32.4571 16.65 32.4952 16.65C32.6286 16.65 36.3809 11.8081 36.3809 11.655C36.3809 11.3871 34.7238 10.3345 33.2762 9.66464C25.7143 6.20068 16.8 9.39671 13.1428 16.8988C11.9619 19.3293 11.7143 20.5158 11.7143 23.731C11.7143 26.1041 11.7714 26.7165 12.1524 27.9414C13.5619 32.4388 16.3048 35.6539 20.4 37.5869C22.5143 38.6012 23.9809 38.9265 26.3809 38.9457H28.4762L30.3809 37.9505C31.9619 37.1467 34.4381 35.6348 37.1619 33.8167L37.6381 33.4914L37.4857 34.7927C36.8 40.6107 32.6857 45.9501 27.4667 47.7491C19.4667 50.5433 10.9524 45.3377 8.85713 36.362C8.39999 34.3526 8.43809 34.1995 9.56189 33.4722C10.0952 33.1086 10.6286 32.7641 10.7238 32.7067C10.8381 32.6302 10.5524 31.6733 10.0381 30.4102C9.56189 29.2045 9.0857 27.7117 8.97142 27.0993C8.85713 26.4677 8.7238 25.9319 8.6857 25.8745C8.57142 25.7596 8.3619 25.9319 4.97142 28.6877L2.03809 31.08L2.17142 33.2617C2.24761 34.4674 2.43809 36.1515 2.59047 36.9936C4.19047 45.4526 10.1524 52.0743 18.0571 54.1986C19.9428 54.6962 24.1714 54.8876 26.2476 54.5431C33.7905 53.3374 40.0762 47.7874 42.7048 39.9983C43.5238 37.5677 43.8095 35.5391 43.8095 32.1708L43.8286 29.1853L45.4667 28.0371C46.3809 27.4055 48.5905 25.7979 50.419 24.4583L53.7143 22.0277L54.6095 23.176C55.0857 23.8076 55.5619 24.286 55.6571 24.2669C55.8476 24.1903 63.0857 10.4876 62.9714 10.3919C62.8952 10.3153 47.9809 14.3343 47.8286 14.4683C47.7905 14.5065 48.1524 15.0424 48.6286 15.674C49.1238 16.3055 49.5238 16.8605 49.5238 16.8988C49.5238 17.0327 44.0952 21.0517 43.9238 21.0517C43.8667 21.0517 43.8095 17.1667 43.8095 12.4396V3.82758H40.7619H37.7143V14.6979Z" fill="white"/>
<path d="M61.6571 32.3622C59.9047 32.7833 58.1714 34.1803 57.4857 35.7114C55.7904 39.5772 57.638 43.8641 61.4666 44.8976C63.7714 45.5291 66.5142 44.9167 67.9047 43.4431L68.4571 42.869L67.5428 41.9312L66.6095 40.9934L65.6761 41.625C63.638 43.0412 61.3904 42.5628 60.3428 40.515C59.4666 38.7926 59.9999 36.4769 61.4857 35.52C62.8761 34.6014 64.2666 34.6971 65.7904 35.8071L66.5142 36.3429L67.4476 35.2712C67.9618 34.6779 68.3238 34.1421 68.2666 34.0464C68.2095 33.9507 67.7904 33.6253 67.3333 33.3C65.9047 32.3048 63.5428 31.9221 61.6571 32.3622Z" fill="white"/>
<path d="M52.1903 36.8214C52.1903 41.2805 52.1903 41.3188 51.7332 41.8355C51.1046 42.5819 50.1332 42.5436 49.1046 41.7207L48.3427 41.1083L47.5236 42.0269C47.0665 42.5436 46.6856 43.0603 46.6665 43.1943C46.6665 43.5962 48.076 44.6105 49.1236 44.9167C51.1236 45.4908 53.4856 44.8593 54.3998 43.4814C55.0856 42.467 55.2379 41.2039 55.2379 36.6491V32.3431H53.7141H52.1903V36.8214Z" fill="white"/>
<path d="M58.8569 52.6293V59.1362H60.2665H61.676L61.7331 56.0932C61.8093 53.1651 61.8284 53.012 62.2665 52.5527C62.7617 52.036 63.5426 51.902 64.1903 52.2465C64.7807 52.5527 64.9522 53.5288 64.9522 56.3803V59.1362H66.3807H67.8093V55.7296C67.8093 53.8541 67.7141 51.9977 67.5998 51.5767C67.0093 49.4332 64.095 48.6486 62.3807 50.1796L61.7141 50.7538V48.4381V46.1224H60.2855H58.8569V52.6293Z" fill="white"/>
<path d="M47.8096 52.8972V59.1362H49.2381H50.6667V57.3372V55.5382L52.6286 55.4617C54.3239 55.4043 54.7048 55.3277 55.562 54.8493C56.9715 54.0646 57.5429 53.146 57.6762 51.5001C57.8096 49.395 57.162 48.0936 55.5429 47.2132C54.8381 46.8305 54.4381 46.7922 51.2953 46.7348L47.8096 46.6582V52.8972ZM54.2286 49.8351C54.6477 50.1988 54.762 50.4476 54.762 51.0982C54.762 51.7489 54.6477 51.9977 54.2286 52.3613C53.7524 52.7632 53.5048 52.8207 52.1715 52.8207H50.6667V51.0982V49.3758H52.1715C53.5048 49.3758 53.7524 49.4332 54.2286 49.8351Z" fill="white"/>
<path d="M72.2859 49.4907C71.9812 49.5481 71.2574 49.7203 70.705 49.8734C69.6002 50.1796 69.6383 50.0648 70.1907 51.6724C70.4574 52.4188 70.5145 52.4188 72.1716 52.0743C72.724 51.9595 73.4097 51.9212 73.6955 51.9786C74.324 52.1317 75.0478 52.7824 75.0478 53.2034C75.0478 53.4905 74.9335 53.4905 74.0002 53.3374C71.7907 52.9355 69.6193 53.7776 69.1431 55.232C68.8383 56.1315 68.9907 57.5095 69.4669 58.141C70.3621 59.3467 72.7431 59.7486 74.2859 58.9448C74.9335 58.6195 75.0478 58.6003 75.0478 58.8491C75.0478 59.0788 75.3335 59.1362 76.4764 59.1362H77.905V56.1124C77.8859 51.7489 77.5431 50.6581 75.8859 49.9308C75.0669 49.5481 73.2955 49.3376 72.2859 49.4907ZM74.7431 55.232C75.2383 55.4234 75.124 56.3803 74.5716 56.8205C73.4288 57.7008 71.9621 57.452 71.8478 56.3229C71.8097 55.8827 71.905 55.6531 72.2288 55.4234C72.6478 55.1172 74.1526 55.0024 74.7431 55.232Z" fill="white"/>
<path d="M83.8858 49.6438C83.562 49.7969 83.1239 50.1413 82.8953 50.4284L82.4763 50.9643V50.2562V49.5672H81.0477H79.6191V54.3517V59.1362H81.0287H82.4382L82.5144 56.6865C82.5525 54.6962 82.6477 54.1412 82.9525 53.6436C83.3525 52.9546 84.2477 52.4379 85.0287 52.4379C85.5239 52.4379 85.5239 52.4188 85.5239 50.9069V49.3758H85.0096C84.7049 49.395 84.2096 49.5098 83.8858 49.6438Z" fill="white"/>
<path d="M90.857 49.5863C90.5903 49.7012 90.1903 49.9691 89.9617 50.1796L89.5236 50.5815V50.0839C89.5236 49.5672 89.5236 49.5672 88.0951 49.5672H86.6665V54.3517V59.1362H88.0951H89.5236V56.0932C89.5236 53.3182 89.5617 53.012 89.9236 52.5527C90.4379 51.902 91.4284 51.8638 91.9998 52.4762C92.3427 52.8589 92.3808 53.146 92.3808 56.0167V59.1362H93.7903H95.1998L95.257 56.0932C95.3332 53.1651 95.3522 53.012 95.7903 52.5527C96.4189 51.8638 97.3522 51.8829 97.8856 52.5527C98.2475 53.012 98.2856 53.3182 98.2856 56.0932V59.1362H99.7141H101.143V55.4425C101.143 52.2082 101.086 51.6724 100.762 50.9451C99.9427 49.1462 96.9141 48.84 95.276 50.371L94.857 50.792L94.5713 50.3901C93.9617 49.5289 92.057 49.1079 90.857 49.5863Z" fill="white"/>
<path d="M105.714 49.5098C104.914 49.6055 103.238 50.1222 103.238 50.2753C103.238 50.3519 103.391 50.8686 103.562 51.4236C103.848 52.3231 103.943 52.4379 104.286 52.3422C106.476 51.7107 107.791 51.8829 108.305 52.8398C108.457 53.1652 108.572 53.4522 108.534 53.4905C108.495 53.5288 108.076 53.4714 107.619 53.3757C106.591 53.1269 104.762 53.28 104.038 53.6627C102.953 54.2369 102.591 54.8493 102.514 56.2464C102.438 57.4712 102.476 57.586 103.029 58.2176C103.848 59.1553 104.495 59.385 106.076 59.2893C107.086 59.2319 107.562 59.1171 108 58.7917C108.553 58.3707 108.572 58.3707 108.572 58.7534C108.572 59.0979 108.686 59.1362 109.905 59.1362H111.238V55.7296C111.238 52.8398 111.181 52.2274 110.876 51.5767C110.476 50.6964 109.848 50.0648 109.105 49.7778C108.495 49.5481 106.61 49.395 105.714 49.5098ZM108.153 55.2321C108.629 55.366 108.667 55.634 108.362 56.3229C107.924 57.2798 106.286 57.6243 105.524 56.9353C105.029 56.476 105.048 56.1507 105.619 55.5957C106.095 55.1172 107.124 54.9641 108.153 55.2321Z" fill="white"/>
</svg>
