<svg width="133" height="68" viewBox="0 0 133 68" fill="none" xmlns="http://www.w3.org/2000/svg">
<path d="M44.0714 13.7599V26.8949L39.192 30.1555C33.4841 33.9712 31.1134 35.3124 30.1238 35.3124C29.042 35.3124 26.6023 34.503 25.4285 33.7399C19.3753 29.8318 18.5928 21.6224 23.7944 16.743C25.6357 15.0087 28.5587 13.8062 30.9063 13.8062C32.5404 13.8062 34.9801 14.4768 36.3611 15.3324C37.0976 15.7718 37.719 16.1187 37.765 16.1187C37.9261 16.1187 42.4603 10.268 42.4603 10.083C42.4603 9.7593 40.4579 8.48742 38.7087 7.67805C29.5714 3.49242 18.8 7.3543 14.3809 16.4193C12.9539 19.3562 12.6547 20.7899 12.6547 24.6749C12.6547 27.5424 12.7238 28.2824 13.1841 29.7624C14.8873 35.1968 18.2015 39.0818 23.15 41.4174C25.7047 42.643 27.4769 43.0362 30.3769 43.0593H32.9087L35.2103 41.8568C37.1206 40.8855 40.1126 39.0587 43.4039 36.8618L43.9793 36.4687L43.7952 38.0412C42.9666 45.0712 37.9952 51.523 31.6888 53.6968C22.0222 57.073 11.7341 50.783 9.20233 39.9374C8.64995 37.5093 8.69598 37.3243 10.0539 36.4455C10.6984 36.0062 11.3428 35.5899 11.4579 35.5205C11.596 35.428 11.2507 34.2718 10.6293 32.7455C10.0539 31.2887 9.47852 29.4849 9.34043 28.7449C9.20233 27.9818 9.04122 27.3343 8.99519 27.2649C8.85709 27.1262 8.60392 27.3343 4.50709 30.6643L0.962646 33.5549L1.12376 36.1912C1.21582 37.648 1.44598 39.683 1.63011 40.7005C3.56344 50.9218 10.7674 58.923 20.319 61.4899C22.5976 62.0912 27.7071 62.3224 30.2158 61.9062C39.3301 60.4493 46.9253 53.743 50.1015 44.3312C51.0912 41.3943 51.4365 38.943 51.4365 34.873L51.4595 31.2655L53.4388 29.878C54.5436 29.1149 57.2134 27.1724 59.423 25.5537L63.4047 22.6168L64.4865 24.0043C65.0619 24.7674 65.6373 25.3455 65.7523 25.3224C65.9825 25.2299 74.7285 8.67242 74.5904 8.5568C74.4984 8.4643 56.4769 13.3205 56.2928 13.4824C56.2468 13.5287 56.6841 14.1762 57.2595 14.9393C57.8579 15.7024 58.3412 16.373 58.3412 16.4193C58.3412 16.5812 51.7817 21.4374 51.5746 21.4374C51.5055 21.4374 51.4365 16.743 51.4365 11.0312V0.62492H47.7539H44.0714V13.7599Z" fill="#003E44"/>
<path d="M73.0022 35.1043C70.8848 35.6131 68.7903 37.3012 67.9617 39.1512C65.9133 43.8224 68.1459 49.0024 72.7721 50.2512C75.557 51.0143 78.8713 50.2743 80.5514 48.4937L81.2189 47.7999L80.1141 46.6668L78.9863 45.5337L77.8586 46.2968C75.3959 48.0081 72.68 47.4299 71.4141 44.9556C70.3554 42.8743 70.9998 40.0762 72.7951 38.9199C74.4752 37.8099 76.1554 37.9256 77.9967 39.2668L78.8713 39.9143L79.999 38.6193C80.6205 37.9024 81.0578 37.2549 80.9887 37.1393C80.9197 37.0237 80.4133 36.6306 79.8609 36.2374C78.1348 35.0349 75.2808 34.5724 73.0022 35.1043Z" fill="#003E44"/>
<path d="M61.5635 40.4923C61.5635 45.8805 61.5635 45.9267 61.0111 46.5511C60.2516 47.453 59.0778 47.4067 57.8349 46.4123L56.9143 45.6723L55.9246 46.7823C55.3722 47.4067 54.9119 48.0311 54.8889 48.193C54.8889 48.6786 56.5921 49.9042 57.858 50.2742C60.2746 50.968 63.1286 50.2048 64.2334 48.5398C65.0619 47.3142 65.2461 45.788 65.2461 40.2842V35.0811H63.4048H61.5635V40.4923Z" fill="#003E44"/>
<path d="M69.6189 59.5936V67.4561H71.3221H73.0252L73.0943 63.7792C73.1864 60.2411 73.2094 60.0561 73.7387 59.5011C74.3372 58.8767 75.2808 58.7148 76.0633 59.1311C76.7768 59.5011 76.984 60.6804 76.984 64.1261V67.4561H78.7102H80.4364V63.3398C80.4364 61.0736 80.3213 58.8304 80.1832 58.3217C79.4697 55.7317 75.9483 54.7836 73.8768 56.6336L73.0713 57.3273V54.5292V51.7311H71.3451H69.6189V59.5936Z" fill="#003E44"/>
<path d="M56.2698 59.9173V67.4561H57.996H59.7222V65.2823V63.1086L62.0928 63.0161C64.1412 62.9467 64.6015 62.8542 65.6372 62.2761C67.3404 61.3279 68.0309 60.2179 68.192 58.2292C68.3531 55.6854 67.5706 54.1129 65.6142 53.0492C64.7626 52.5867 64.2793 52.5404 60.4817 52.4711L56.2698 52.3786V59.9173ZM64.0261 56.2173C64.5325 56.6567 64.6706 56.9573 64.6706 57.7436C64.6706 58.5298 64.5325 58.8304 64.0261 59.2698C63.4507 59.7554 63.1515 59.8248 61.5404 59.8248H59.7222V57.7436V55.6623H61.5404C63.1515 55.6623 63.4507 55.7317 64.0261 56.2173Z" fill="#003E44"/>
<path d="M85.8451 55.8012C85.4769 55.8705 84.6023 56.0787 83.9348 56.2637C82.5999 56.6337 82.6459 56.4949 83.3134 58.4374C83.6356 59.3393 83.7047 59.3393 85.707 58.923C86.3745 58.7843 87.2031 58.738 87.5483 58.8074C88.3078 58.9924 89.1824 59.7787 89.1824 60.2874C89.1824 60.6343 89.0443 60.6343 87.9166 60.4493C85.2467 59.9637 82.6229 60.9812 82.0475 62.7387C81.6793 63.8255 81.8634 65.4905 82.4388 66.2537C83.5205 67.7105 86.3975 68.1962 88.2618 67.2249C89.0443 66.8318 89.1824 66.8087 89.1824 67.1093C89.1824 67.3868 89.5277 67.4562 90.9086 67.4562H92.6348V63.8024C92.6118 58.5299 92.1975 57.2118 90.1951 56.333C89.2054 55.8705 87.065 55.6162 85.8451 55.8012ZM88.8142 62.7387C89.4126 62.9699 89.2745 64.1262 88.607 64.658C87.2261 65.7218 85.4539 65.4212 85.3158 64.0568C85.2697 63.5249 85.3848 63.2474 85.7761 62.9699C86.2824 62.5999 88.1007 62.4612 88.8142 62.7387Z" fill="#003E44"/>
<path d="M99.8619 55.9861C99.4706 56.1711 98.9412 56.5873 98.665 56.9342L98.1587 57.5817V56.7261V55.8936H96.4325H94.7063V61.6748V67.4561H96.4095H98.1126L98.2047 64.4961C98.2507 62.0911 98.3658 61.4204 98.7341 60.8192C99.2174 59.9867 100.299 59.3623 101.243 59.3623C101.841 59.3623 101.841 59.3392 101.841 57.5123V55.6623H101.22C100.852 55.6854 100.253 55.8242 99.8619 55.9861Z" fill="#003E44"/>
<path d="M108.286 55.9167C107.963 56.0554 107.48 56.3792 107.204 56.6336L106.675 57.1192V56.5179C106.675 55.8936 106.675 55.8936 104.948 55.8936H103.222V61.6748V67.4561H104.948H106.675V63.7792C106.675 60.4261 106.721 60.0561 107.158 59.5011C107.779 58.7148 108.976 58.6686 109.667 59.4086C110.081 59.8711 110.127 60.2179 110.127 63.6867V67.4561H111.83H113.533L113.602 63.7792C113.694 60.2411 113.717 60.0561 114.247 59.5011C115.006 58.6686 116.134 58.6917 116.779 59.5011C117.216 60.0561 117.262 60.4261 117.262 63.7792V67.4561H118.988H120.714V62.9929C120.714 59.0848 120.645 58.4373 120.254 57.5586C119.264 55.3848 115.605 55.0148 113.625 56.8648L113.119 57.3736L112.774 56.8879C112.037 55.8473 109.736 55.3386 108.286 55.9167Z" fill="#003E44"/>
<path d="M126.238 55.8242C125.271 55.9398 123.246 56.5642 123.246 56.7492C123.246 56.8417 123.43 57.4661 123.637 58.1367C123.983 59.2236 124.098 59.3623 124.512 59.2467C127.159 58.4836 128.747 58.6917 129.368 59.848C129.552 60.2411 129.69 60.588 129.644 60.6342C129.598 60.6805 129.092 60.6111 128.54 60.4955C127.297 60.1948 125.087 60.3798 124.213 60.8423C122.901 61.5361 122.464 62.2761 122.371 63.9642C122.279 65.4442 122.325 65.583 122.993 66.3461C123.983 67.4792 124.765 67.7567 126.675 67.6411C127.895 67.5717 128.471 67.433 129 67.0398C129.667 66.5311 129.69 66.5311 129.69 66.9936C129.69 67.4098 129.829 67.4561 131.302 67.4561H132.913V63.3398C132.913 59.848 132.844 59.108 132.475 58.3217C131.992 57.258 131.233 56.4948 130.335 56.148C129.598 55.8705 127.32 55.6855 126.238 55.8242ZM129.184 62.7386C129.76 62.9005 129.806 63.2242 129.437 64.0567C128.908 65.213 126.929 65.6292 126.008 64.7967C125.41 64.2417 125.433 63.8486 126.123 63.178C126.698 62.5998 127.941 62.4148 129.184 62.7386Z" fill="#003E44"/>
</svg>
